<?xml version="1.0" encoding="iso-8859-1"?>
<!-- Generator: Adobe Illustrator 19.0.0, SVG Export Plug-In . SVG Version: 6.00 Build 0)  -->
<svg version="1.1" id="Layer_1" xmlns="http://www.w3.org/2000/svg" xmlns:xlink="http://www.w3.org/1999/xlink" x="0px" y="0px"
	 viewBox="0 0 512.001 512.001" style="enable-background:new 0 0 512.001 512.001;" xml:space="preserve">
<path style="fill:#FFBA49;" d="M108.266,133.56L108.266,133.56c0,39.236,31.807,71.044,71.044,71.044h9.302
	c39.236,0,71.044-31.807,71.044-71.044l0,0H108.266z"/>
<path style="fill:#7FCA64;" d="M259.657,7.817c-7.79,0-14.105,6.316-14.105,14.105v97.534h-47.486V14.105
	C198.066,6.316,191.752,0,183.962,0s-14.105,6.316-14.105,14.105v105.351h-47.486V21.921c0-7.789-6.315-14.105-14.105-14.105
	s-14.105,6.316-14.105,14.105V133.56c0,43.754,33.178,79.892,75.696,84.611v64.347h-25.624c-7.79,0-14.105,6.316-14.105,14.105
	v161.542c0,29.683,24.15,53.833,53.833,53.833s53.833-24.15,53.833-53.833V397.25c0-7.789-6.315-14.105-14.105-14.105
	s-14.105,6.316-14.105,14.105v60.915c0,14.13-11.494,25.624-25.624,25.624c-14.13,0-25.624-11.494-25.624-25.624V310.729h51.247
	v39.07c0,7.789,6.315,14.105,14.105,14.105c7.79,0,14.105-6.316,14.105-14.105v-53.175c0-7.789-6.315-14.105-14.105-14.105h-25.624
	v-64.347c42.517-4.721,75.696-40.857,75.696-84.611V21.923C273.762,14.133,267.447,7.817,259.657,7.817z M243.646,148.164
	c-0.185,0.695-0.379,1.385-0.59,2.071c-0.09,0.295-0.189,0.584-0.285,0.877c-0.173,0.535-0.353,1.069-0.542,1.597
	c-0.114,0.32-0.234,0.636-0.354,0.955c-0.189,0.499-0.385,0.996-0.588,1.489c-0.13,0.316-0.26,0.628-0.394,0.941
	c-0.22,0.506-0.449,1.008-0.683,1.506c-0.131,0.282-0.26,0.566-0.395,0.845c-0.303,0.622-0.621,1.236-0.946,1.845
	c-0.078,0.145-0.148,0.293-0.227,0.439c-0.403,0.738-0.824,1.467-1.258,2.186c-0.15,0.248-0.309,0.491-0.463,0.736
	c-0.298,0.477-0.598,0.951-0.91,1.418c-0.19,0.285-0.386,0.564-0.581,0.848c-0.292,0.422-0.588,0.839-0.891,1.253
	c-0.209,0.285-0.419,0.567-0.633,0.848c-0.312,0.409-0.63,0.812-0.952,1.212c-0.213,0.265-0.425,0.53-0.642,0.791
	c-0.364,0.436-0.738,0.862-1.116,1.286c-0.186,0.21-0.368,0.426-0.559,0.632c-0.56,0.614-1.133,1.214-1.718,1.803
	c-0.165,0.165-0.337,0.323-0.505,0.488c-0.439,0.429-0.88,0.853-1.331,1.268c-0.244,0.224-0.494,0.441-0.742,0.661
	c-0.389,0.344-0.78,0.687-1.179,1.021c-0.269,0.227-0.542,0.449-0.815,0.67c-0.395,0.32-0.794,0.633-1.197,0.942
	c-0.276,0.212-0.554,0.425-0.835,0.63c-0.43,0.317-0.867,0.625-1.308,0.929c-0.26,0.182-0.516,0.365-0.78,0.542
	c-0.591,0.396-1.19,0.78-1.797,1.152c-0.117,0.073-0.231,0.151-0.35,0.223c-0.718,0.436-1.447,0.852-2.183,1.257
	c-0.258,0.142-0.522,0.275-0.783,0.413c-0.496,0.262-0.996,0.52-1.501,0.769c-0.303,0.15-0.611,0.292-0.918,0.437
	c-0.478,0.224-0.959,0.441-1.444,0.654c-0.316,0.137-0.632,0.272-0.951,0.403c-0.499,0.206-1.004,0.403-1.511,0.597
	c-0.305,0.116-0.608,0.234-0.915,0.346c-0.587,0.21-1.179,0.409-1.774,0.602c-0.23,0.075-0.457,0.155-0.688,0.227
	c-0.824,0.255-1.656,0.492-2.495,0.709c-0.207,0.054-0.419,0.099-0.626,0.15c-0.642,0.158-1.286,0.312-1.937,0.447
	c-0.31,0.066-0.623,0.123-0.935,0.183c-0.559,0.107-1.12,0.209-1.684,0.302c-0.337,0.054-0.676,0.104-1.014,0.152
	c-0.557,0.08-1.117,0.15-1.678,0.213c-0.334,0.038-0.67,0.078-1.006,0.109c-0.605,0.056-1.214,0.1-1.825,0.14
	c-0.292,0.018-0.584,0.042-0.877,0.056c-0.903,0.042-1.808,0.069-2.722,0.069h-9.302c-0.913,0-1.82-0.027-2.722-0.069
	c-0.293-0.014-0.584-0.038-0.877-0.056c-0.611-0.038-1.22-0.083-1.825-0.14c-0.336-0.031-0.67-0.071-1.006-0.109
	c-0.563-0.063-1.123-0.134-1.681-0.213c-0.339-0.048-0.676-0.099-1.011-0.152c-0.566-0.092-1.128-0.195-1.688-0.303
	c-0.31-0.059-0.622-0.116-0.931-0.181c-0.653-0.138-1.3-0.291-1.945-0.45c-0.205-0.051-0.413-0.094-0.618-0.147
	c-0.841-0.219-1.674-0.456-2.499-0.712c-0.226-0.071-0.449-0.148-0.673-0.221c-0.601-0.195-1.199-0.394-1.791-0.608
	c-0.303-0.11-0.604-0.227-0.904-0.341c-0.511-0.195-1.018-0.392-1.522-0.601c-0.315-0.131-0.628-0.265-0.941-0.401
	c-0.489-0.212-0.975-0.433-1.456-0.659c-0.303-0.142-0.607-0.284-0.907-0.432c-0.512-0.251-1.018-0.513-1.522-0.78
	c-0.254-0.135-0.511-0.265-0.762-0.402c-0.74-0.405-1.473-0.825-2.193-1.262c-0.102-0.062-0.2-0.13-0.302-0.193
	c-0.622-0.382-1.238-0.777-1.843-1.183c-0.257-0.172-0.508-0.351-0.76-0.528c-0.447-0.31-0.89-0.622-1.327-0.945
	c-0.276-0.205-0.549-0.412-0.821-0.619c-0.409-0.313-0.812-0.63-1.213-0.953c-0.269-0.219-0.539-0.439-0.804-0.661
	c-0.403-0.337-0.8-0.684-1.193-1.032c-0.243-0.216-0.489-0.43-0.728-0.649c-0.461-0.425-0.913-0.858-1.361-1.298
	c-0.158-0.154-0.32-0.303-0.475-0.458c-0.59-0.591-1.164-1.196-1.726-1.811c-0.182-0.199-0.355-0.403-0.533-0.605
	c-0.385-0.436-0.769-0.872-1.141-1.317c-0.213-0.255-0.419-0.513-0.626-0.772c-0.327-0.406-0.652-0.815-0.968-1.231
	c-0.21-0.275-0.417-0.554-0.622-0.834c-0.307-0.419-0.608-0.842-0.904-1.269c-0.192-0.275-0.384-0.551-0.57-0.831
	c-0.316-0.474-0.621-0.955-0.922-1.439c-0.15-0.24-0.306-0.477-0.451-0.719c-0.436-0.721-0.858-1.45-1.261-2.192
	c-0.076-0.138-0.144-0.281-0.219-0.42c-0.329-0.615-0.649-1.234-0.955-1.862c-0.134-0.275-0.26-0.554-0.389-0.831
	c-0.236-0.504-0.468-1.011-0.69-1.523c-0.133-0.307-0.261-0.618-0.389-0.928c-0.205-0.498-0.402-0.997-0.592-1.501
	c-0.118-0.315-0.237-0.629-0.351-0.946c-0.19-0.532-0.37-1.068-0.544-1.607c-0.094-0.289-0.192-0.577-0.282-0.869
	c-0.21-0.684-0.405-1.378-0.591-2.073c-0.039-0.147-0.085-0.292-0.123-0.441c-0.004-0.018-0.008-0.037-0.013-0.056h119.64
	c-0.004,0.02-0.008,0.038-0.013,0.056C243.73,147.871,243.685,148.016,243.646,148.164z"/>
<path style="fill:#F06C9B;" d="M325.923,245.035h76.165v-90.984c0-52.52-24.882-101.936-67.076-133.21l-9.089-6.736V245.035z"/>
<path style="fill:#00C2D1;" d="M403.734,363.904c7.79,0,14.105-6.316,14.105-14.105v-53.175c0-7.789-6.315-14.105-14.105-14.105
	H378.11v-23.38h23.978c7.79,0,14.105-6.316,14.105-14.105v-90.982c0-56.729-27.208-110.763-72.782-144.543l-9.089-6.736
	c-4.281-3.172-9.985-3.662-14.742-1.265c-4.759,2.396-7.76,7.27-7.76,12.598v230.93c0,7.789,6.315,14.105,14.105,14.105h23.978
	v23.38h-25.624c-7.79,0-14.105,6.316-14.105,14.105v161.542c0,29.683,24.15,53.833,53.833,53.833
	c29.683,0,53.833-24.15,53.833-53.833v-60.915c0-7.789-6.315-14.105-14.105-14.105s-14.105,6.316-14.105,14.105v60.915
	c0,14.13-11.495,25.624-25.624,25.624s-25.624-11.494-25.624-25.624V310.729h51.247v39.07
	C389.629,357.588,395.944,363.904,403.734,363.904z M340.027,43.385c30.294,28.472,47.956,68.694,47.956,110.668v76.878h-47.956
	V43.385z"/>
<g>
</g>
<g>
</g>
<g>
</g>
<g>
</g>
<g>
</g>
<g>
</g>
<g>
</g>
<g>
</g>
<g>
</g>
<g>
</g>
<g>
</g>
<g>
</g>
<g>
</g>
<g>
</g>
<g>
</g>
</svg>
